<svg version="1.1" xmlns="http://www.w3.org/2000/svg" xmlns:xlink="http://www.w3.org/1999/xlink" width="493.05539" height="337.67692" viewBox="1193.72801,304.94971,493.05539,337.67692"><g fill="none" fill-rule="nonzero" stroke="none" stroke-width="1" stroke-linecap="none" stroke-linejoin="none" stroke-miterlimit="10" stroke-dasharray="" stroke-dashoffset="0" font-family="none" font-weight="none" font-size="none" text-anchor="none" style="mix-blend-mode: normal"><g id="Group 1" fill="#4f4c4c" stroke="none" stroke-linecap="butt" stroke-linejoin="miter"><path d="M1391.61754,305.63919c-93.06078,0 -168.49433,75.43661 -168.49433,168.49372c0,93.05222 75.43355,168.49372 168.49433,168.49372c65.90812,0 122.97514,-37.84203 150.66547,-92.98379c-3.52545,0.51263 -7.27696,0.78941 -11.27899,0.78941h-0.01222c-0.38493,0 -0.76985,-0.00611 -1.15478,-0.01161c-26.89604,48.62916 -78.7146,81.56 -138.21949,81.56c-87.17689,0 -157.85078,-70.67145 -157.85078,-157.84772c0,-87.18178 70.67389,-157.85323 157.85078,-157.85323c72.87348,0 134.20524,49.38496 152.37015,116.50958l9.74539,-4.71444c-20.03455,-70.66534 -85.02619,-122.43563 -162.11553,-122.43563" id="Path 1 1"/></g><path d="M1356.92638,308.57946c-91.07487,19.12269 -149.3975,108.45002 -130.27557,199.5213c19.12093,91.06649 108.4469,149.39754 199.52177,130.27485c64.50164,-13.5432 112.57485,-62.30415 128.34341,-121.95917c-3.34488,1.22612 -6.95946,2.26788 -10.87608,3.09024l-0.01196,0.00251c-0.37672,0.0791 -0.75468,0.15221 -1.13252,0.22593c-16.32947,53.11818 -60.2754,95.99426 -118.51046,108.22168c-85.31654,17.91363 -169.00425,-36.7272 -186.91775,-122.04313c-17.91464,-85.32133 36.72908,-169.00715 122.04562,-186.92078c71.31836,-14.97448 141.48923,20.75379 173.05967,82.71334l8.56867,-6.61638c-34.12775,-65.04053 -108.37054,-102.35117 -183.8148,-86.51039" id="Path 1" fill="#81d4fa" stroke="none" stroke-linecap="butt" stroke-linejoin="miter"/><path d="M1351.73189,491.15521c-1.64767,-1.88172 -3.92142,-3.89428 -6.24575,-6.11881c1.5966,1.59936 3.7216,3.6964 6.24575,6.11881" id="Path 1" fill="#00adef" stroke="none" stroke-linecap="butt" stroke-linejoin="miter"/><path d="M1342.20237,481.70064c1.06652,1.1649 2.1796,2.27642 3.28378,3.33577c-2.08869,-2.09241 -3.28378,-3.33577 -3.28378,-3.33577" id="Path 1" fill="#00adef" stroke="none" stroke-linecap="butt" stroke-linejoin="miter"/><path d="M1342.20237,481.70064l-0.23079,0.25058c1.07728,1.17731 2.19893,2.29406 3.30311,3.35341l0.4293,-0.53839c-1.04435,-1.04621 -1.86316,-1.87885 -2.41977,-2.44635c-0.5588,-0.57467 -0.85544,-0.8842 -0.85544,-0.8842l-0.45721,0.51552l0.23079,-0.25058l-0.22003,0.26299c0,0 1.19509,1.24335 3.28378,3.33577l0.22003,-0.26299l0.21566,-0.27734c-1.10199,-1.05217 -2.21289,-2.15653 -3.27084,-3.3162l-0.2286,0.25776l-0.22003,0.26299l0.22003,-0.26299" id="Path 1" fill="#3871c1" stroke="none" stroke-linecap="butt" stroke-linejoin="miter"/><path d="M1356.28726,511.08148c2.01401,2.10413 2.84284,4.03271 0.84919,6.11919c-5.7277,5.98778 -34.75371,-3.04096 -34.75371,-3.04096l-2.07933,8.61995c13.8669,6.39983 53.40682,17.59144 78.45145,17.02794c-13.68287,-4.84669 -32.17397,-19.79427 -42.4676,-28.72612" id="Path 1" fill="#3871c1" stroke="none" stroke-linecap="butt" stroke-linejoin="miter"/><g id="Group 1" fill="#00a6fb" stroke="none" stroke-linecap="butt" stroke-linejoin="miter"><path d="M1485.00262,469.15119c-0.59652,0.62112 -1.54805,1.44389 -2.80565,2.4225c-0.32457,0.22414 -0.67569,0.4643 -1.03898,0.71612c-0.36329,0.25181 -0.72516,0.53408 -1.1518,0.75841c-0.8187,0.4849 -1.70812,1.02134 -2.72347,1.47962c-0.97632,0.50906 -2.08546,0.91734 -3.24105,1.37949c-1.17053,0.38727 -2.4199,0.79942 -3.74979,1.10194c-0.33018,0.07669 -0.65791,0.16147 -1.00248,0.24255c-0.34155,0.06515 -0.68335,0.12951 -1.03209,0.19685c-0.69995,0.12661 -1.40984,0.27214 -2.1466,0.35524c-1.45803,0.21709 -2.98219,0.32017 -4.54815,0.38919c-3.14353,0.1257 -6.47945,-0.01922 -9.9439,-0.50892c-0.41187,-0.06259 -0.83812,-0.1208 -1.25939,-0.18846l-0.64172,-0.09499l-0.66691,-0.12615c-0.86774,-0.1665 -1.74569,-0.31489 -2.6151,-0.51264c-1.754,-0.36796 -3.5158,-0.78737 -5.27595,-1.27877c-3.53081,-0.93989 -7.0609,-2.08387 -10.58326,-3.25405c-3.48862,-1.18838 -6.977,-2.37595 -10.40643,-3.55058c-0.86474,-0.28567 -1.71788,-0.55899 -2.56382,-0.83451c-0.84816,-0.28278 -1.68967,-0.54375 -2.52204,-0.80045c-0.82936,-0.27262 -1.6858,-0.50522 -2.52535,-0.75973c-0.81356,-0.24654 -1.65199,-0.44579 -2.46831,-0.67559c-3.27909,-0.83561 -6.46732,-1.52766 -9.50529,-1.95834c-3.03402,-0.41776 -5.91365,-0.63805 -8.56883,-0.6372c-2.6408,-0.00353 -5.06575,0.18581 -7.17916,0.54684c-1.06615,0.13661 -2.03322,0.39221 -2.95107,0.57723c-0.45383,0.08345 -0.88079,0.22933 -1.29504,0.33956c-0.40485,0.11532 -0.80251,0.22844 -1.1714,0.33281c-0.72894,0.23782 -1.37516,0.48928 -1.9509,0.6884c-0.13661,0.04159 -0.2782,0.09264 -0.40564,0.1385c-0.13218,0.05614 -0.25717,0.11007 -0.37497,0.16182c-0.22866,0.10051 -0.44989,0.19963 -0.63761,0.27973c-0.77177,0.3294 -1.18293,0.50136 -1.18293,0.50136c0,0 0.37711,-0.23219 1.08821,-0.68345c0.70643,-0.46661 1.78997,-1.06214 3.21538,-1.74764c0.36084,-0.15663 0.74301,-0.32065 1.14698,-0.49041c0.40619,-0.1625 0.8157,-0.36572 1.26866,-0.50362c0.89289,-0.31862 1.8718,-0.66431 2.93899,-0.92656c1.05912,-0.31452 2.21069,-0.53185 3.42474,-0.77615c1.22235,-0.19122 2.52301,-0.38335 3.88512,-0.47681c2.71341,-0.22244 5.69465,-0.23608 8.84371,0.0434c3.14487,0.26574 6.46189,0.7615 9.84963,1.54107c0.84784,0.20433 1.69623,0.38465 2.56012,0.61587c0.85226,0.21887 1.69292,0.42539 2.56098,0.67033c1.73914,0.47398 3.47274,0.98141 5.21219,1.53382c3.48166,1.08812 6.98387,2.29532 10.48023,3.4575c3.48641,1.1811 6.96452,2.30915 10.39633,3.31096c3.44177,0.98289 6.82042,1.83585 10.14194,2.42378c3.26953,0.57199 6.47666,0.91321 9.50333,0.97136c3.02249,0.04442 5.87282,-0.14117 8.46748,-0.54722c1.30508,-0.17758 2.51384,-0.49088 3.6853,-0.74604c1.14982,-0.32624 2.25074,-0.60671 3.2476,-0.99669c1.01457,-0.33183 1.91543,-0.77909 2.77372,-1.13395c0.4347,-0.17206 0.81404,-0.397 1.20197,-0.59365c0.38075,-0.19446 0.74016,-0.38157 1.08496,-0.56509c0.6666,-0.39094 1.24748,-0.7796 1.76674,-1.08684c0.13297,-0.07932 0.25852,-0.15725 0.37711,-0.23219c0.11614,-0.08302 0.22534,-0.16304 0.32734,-0.24087c0.21316,-0.15139 0.39978,-0.28675 0.56483,-0.41556c0.68368,-0.48969 1.04973,-0.75823 1.04973,-0.75823c0,0 -0.31786,0.32358 -0.92822,0.9251zM1616.4089,415.4316c-21.21816,60.95585 -72.83664,54.80614 -72.83664,54.80614c43.60377,-3.42789 59.09862,-42.54022 64.17093,-70.16043l-27.23279,-16.24027c-0.86317,26.83999 -20.75359,41.78658 -20.75359,41.78658c0.25457,-0.27344 0.50915,-0.54686 0.75653,-0.81811c15.44596,-17.00364 10.14966,-46.83737 -10.22105,-58.98897l-8.04349,-4.79511c4.60531,29.18981 0.36079,48.4588 -9.5671,61.08535c8.42713,-4.88591 16.35796,-12.4599 20.58075,-24.18792c0,0 -2.19706,26.51006 -34.62373,36.12307c-46.69247,26.67389 -143.6978,-7.21871 -171.16041,22.38901c-14.19735,15.29878 -11.49545,25.51514 -5.53936,33.15656c0.63633,0.82561 1.31633,1.6141 2.01374,2.38229c0,0 1.19553,1.24314 3.27856,3.33692c2.32701,2.22425 4.59752,4.23712 6.24672,6.11879c12.68235,12.18713 35.41423,32.63601 51.9765,39.58124c0.59881,0.00568 1.19761,0.01135 1.78505,0.00548c7.3476,-0.09683 13.50613,-1.23489 17.68465,-3.79295c22.12737,-13.53422 -7.93791,-28.83357 -32.19321,-31.75889c-0.23678,-0.02941 -0.4882,-0.05523 -0.72,-0.0941c-12.70596,-1.65904 -12.33853,-22.43763 0.38245,-21.6066c16.80953,1.09983 39.31899,10.70278 67.02259,19.76752c1.09158,0.33398 43.91718,13.13576 93.3424,2.35335c0,0 -19.7539,7.91167 -44.1505,10.43148c16.45877,2.91524 34.11992,4.51567 52.94936,3.68288c91.61565,-4.06662 77.34224,-91.15169 77.34224,-91.15169l-22.49058,-13.41162" id="CompoundPath 1 1"/></g><path d="M1503.05446,455.23625c-0.70696,0.74162 -1.83512,1.72353 -3.32651,2.89107c-0.385,0.2673 -0.80148,0.55372 -1.23239,0.85403c-0.4309,0.30031 -0.86004,0.63708 -1.36631,0.90432c-0.97133,0.57794 -2.02655,1.21737 -3.2316,1.76289c-1.15854,0.6064 -2.47517,1.09183 -3.84684,1.64157c-1.38964,0.46008 -2.87288,0.94972 -4.45211,1.30791c-0.39208,0.09083 -0.78122,0.19134 -1.19038,0.28737c-0.40563,0.07699 -0.81155,0.15301 -1.22571,0.2326c-0.83128,0.1495 -1.67431,0.32161 -2.54946,0.41893c-1.73173,0.25559 -3.54236,0.37452 -5.40275,0.45261c-3.73462,0.14133 -7.6986,-0.04178 -11.8163,-0.63787c-0.48955,-0.0761 -0.99616,-0.147 -1.49689,-0.2292l-0.76272,-0.11554l-0.79276,-0.15291c-1.0315,-0.20178 -2.07506,-0.38191 -3.10861,-0.6211c-2.08507,-0.44545 -4.17957,-0.95249 -6.27232,-1.5457c-4.19785,-1.13509 -8.39544,-2.51441 -12.58392,-3.92504c-4.14844,-1.43234 -8.29659,-2.86372 -12.37467,-4.27943c-1.02827,-0.3444 -2.04272,-0.67397 -3.04862,-1.00615c-1.00856,-0.34088 -2.00916,-0.65565 -2.99887,-0.96528c-0.98618,-0.32867 -2.00443,-0.60952 -3.00269,-0.91655c-0.96734,-0.29741 -1.9641,-0.53829 -2.93467,-0.8157c-3.89845,-1.00955 -7.68856,-1.84702 -11.29935,-2.37125c-3.60608,-0.50876 -7.02813,-0.78075 -10.18287,-0.78742c-3.13767,-0.01187 -6.01832,0.2077 -8.52832,0.63365c-1.26634,0.1604 -2.41462,0.4635 -3.50464,0.68225c-0.53898,0.09855 -1.04585,0.27191 -1.53772,0.40263c-0.48068,0.13683 -0.95283,0.27106 -1.39082,0.3949c-0.86539,0.28251 -1.63248,0.58158 -2.31596,0.81821c-0.16219,0.04938 -0.33026,0.11006 -0.48156,0.16459c-0.15689,0.0668 -0.30525,0.13099 -0.44505,0.19257c-0.27139,0.11962 -0.53394,0.23761 -0.75677,0.33293c-0.91601,0.39199 -1.40405,0.59659 -1.40405,0.59659c0,0 0.4474,-0.27679 1.29097,-0.81478c0.83798,-0.55638 2.12367,-1.26597 3.81529,-2.08223c0.42828,-0.18641 0.88187,-0.3816 1.36136,-0.5836c0.48215,-0.1933 0.96811,-0.43533 1.5059,-0.59906c1.05997,-0.37873 2.22206,-0.78962 3.48926,-1.10038c1.25748,-0.37334 2.62508,-0.63009 4.06685,-0.91896c1.45179,-0.22532 2.9966,-0.45148 4.61472,-0.55937c3.22329,-0.25836 6.7654,-0.26603 10.50775,0.07757c3.73734,0.32715 7.6799,0.93007 11.70727,1.87289c1.00795,0.24699 2.01648,0.46527 3.04358,0.74449c1.01325,0.26441 2.01267,0.514 3.04476,0.80965c2.06772,0.57229 4.12898,1.18458 6.1973,1.85076c4.13989,1.31233 8.30452,2.76724 12.46208,4.16826c4.14579,1.42364 8.28156,2.78374 12.36197,3.99262c4.09218,1.18628 8.10897,2.21687 12.05714,2.93013c3.88634,0.69402 7.69787,1.11169 11.29417,1.19005c3.59129,0.06192 6.97737,-0.15193 10.05903,-0.63036c1.5501,-0.20874 2.98538,-0.58019 4.37652,-0.88217c1.36521,-0.3871 2.67245,-0.71957 3.85575,-1.18341c1.2045,-0.39419 2.27355,-0.92685 3.2923,-1.34906c0.51599,-0.20466 0.96604,-0.47275 1.4264,-0.70698c0.45182,-0.23163 0.87833,-0.4545 1.28746,-0.67313c0.79089,-0.46593 1.47993,-0.9294 2.096,-1.2956c0.15777,-0.09454 0.3067,-0.18745 0.4474,-0.27679c0.13775,-0.09901 0.26725,-0.19447 0.38822,-0.28732c0.25284,-0.18056 0.47417,-0.34202 0.66991,-0.4957c0.81089,-0.58407 1.24504,-0.90438 1.24504,-0.90438c0,0 -0.37673,0.38635 -1.10019,1.10446zM1659.02878,391.32633c-25.03363,72.8895 -86.38181,65.38003 -86.38181,65.38003c51.79778,-3.97608 70.09458,-50.74019 76.04118,-83.78089l-32.40364,-19.51501c-0.94779,32.11918 -24.53722,49.94936 -24.53722,49.94936c0.30168,-0.3265 0.60335,-0.653 0.8965,-0.97691c18.3028,-20.30491 11.92355,-56.02481 -12.31507,-70.62667l-9.57074,-5.76202c5.55638,34.94724 0.56911,57.99576 -11.1901,73.07824c9.9985,-5.82296 19.39954,-14.8644 24.38287,-28.88807c0,0 -2.53361,31.72044 -41.03341,43.13116c-55.40023,31.78756 -170.75507,-9.05569 -203.2989,26.29877c-16.82421,18.26818 -13.58434,30.50279 -6.48549,39.66519c0.75844,0.98993 1.56867,1.93555 2.39952,2.85693c0,0 1.42408,1.49124 3.90508,4.00307c2.77128,2.66869 5.47481,5.08425 7.43976,7.34097c15.10381,14.62211 42.1719,39.16089 61.87045,47.52084c0.71149,0.00853 1.42297,0.01705 2.12093,0.01173c8.72975,-0.09459 16.0437,-1.43877 21.00098,-4.48809c26.25135,-16.13341 -9.51497,-34.53056 -38.34232,-38.10183c-0.28142,-0.03588 -0.58021,-0.06753 -0.85575,-0.1147c-15.10135,-2.02232 -14.72502,-26.88875 0.39178,-25.85732c19.97539,1.36498 46.74777,12.92287 79.68999,23.85169c1.29793,0.40288 52.21814,15.84795 110.91134,3.08697c0,0 -23.44761,9.41132 -52.42706,12.35627c19.5639,3.53661 40.55258,5.50317 62.92231,4.56106c108.84109,-4.60135 91.6298,-108.86475 91.6298,-108.86475l-26.76099,-16.11599" id="CompoundPath 1" fill="#0582ca" stroke="none" stroke-linecap="butt" stroke-linejoin="miter"/><path d="M1612,638" id="Path 1" fill="none" stroke="#000000" stroke-linecap="round" stroke-linejoin="round"/><path d="M1307.56827,553.20864" id="Path 1" fill="none" stroke="#000000" stroke-linecap="round" stroke-linejoin="round"/><path d="M1298.30882,554.53389c2.44613,0.49365 4.81994,-0.65543 5.30411,-2.57148l1.90201,-7.6104c5.81173,0.01138 10.88271,-3.08433 12.05657,-7.75687l14.1512,-56.1888c1.38807,-5.52648 -3.19712,-11.14366 -10.25209,-12.56082c-7.05936,-1.42773 -13.88943,1.89725 -15.29056,7.42663l-14.13813,56.1859c0.25281,8.25786 1.92204,9.42237 7.1811,11.62994l-0.68133,2.67402c-0.47109,1.91314 -2.84491,3.06222 -5.29106,2.56858l-16.87003,-3.39654c-1.64817,-0.32524 -2.9856,-1.34151 -3.45726,-2.64216l-17.72331,-48.39777c-0.47166,-1.30065 -1.79605,-2.31983 -3.44862,-2.6556l-15.06048,-3.02649c-0.69703,-2.04545 -2.77373,-3.77307 -5.54688,-4.33235l-28.69078,-5.7715c-3.83271,-0.7733 -7.68539,0.93452 -8.54837,3.92534c-0.88864,3.10021 1.66047,6.30108 5.63271,7.10101l28.83033,5.79812c2.76011,0.56218 5.46667,-0.20001 7.0893,-1.78133l11.23217,2.26374c1.64817,0.32524 2.99001,1.35205 3.45726,2.64216l17.72331,48.39777c0.47166,1.30065 1.79605,2.31983 3.44862,2.6556z" id="Path 1" fill="#4f4c4c" stroke="none" stroke-linecap="butt" stroke-linejoin="miter"/><path d="M1255.94404,467.92883" id="Path 1" fill="none" stroke="#000000" stroke-linecap="round" stroke-linejoin="round"/><path d="M1293.59265,514.41916" id="Path 1" fill="none" stroke="#000000" stroke-linecap="round" stroke-linejoin="round"/><path d="M1305.65755,544.47778c5.81173,0.01138 10.88271,-3.08433 12.05657,-7.75687l14.1512,-56.1888c1.38807,-5.52648 -3.19712,-11.14366 -10.25209,-12.56082c-7.05936,-1.42773 -13.88943,1.89725 -15.29056,7.42663l-14.13813,56.1859c0.25281,8.25786 1.92204,9.42237 7.1811,11.62994z" id="Path 1" fill="#446375" stroke="none" stroke-linecap="butt" stroke-linejoin="miter"/></g></svg>