<?xml version="1.0" encoding="UTF-8" standalone="no" ?>
<!DOCTYPE svg PUBLIC "-//W3C//DTD SVG 1.1//EN" "http://www.w3.org/Graphics/SVG/1.1/DTD/svg11.dtd">
<svg width="341.2715" height="158.2644" version="1.1" xmlns="http://www.w3.org/2000/svg" xmlns:xlink="http://www.w3.org/1999/xlink" xml:space="preserve" name="graphic (13)">
  <defs/>
  <g transform="matrix(1.0 0.0 -0.0 -1.0 0.0 158.2644) ">
    <g transform="matrix(1.0 0.0 0.0 1.0 -83.6485 -118.8451) " id="graphic_(13)">
      <g>
        <path d="M193.0119 162.7923 C191.8714 164.0947 190.2976 165.4877 188.6888 167.0274 189.7939 165.9204 191.2648 164.4689 193.0119 162.7923 " fill="#00ADEF" fillRule="nonzero" id="Path_1"/>
        <path d="M186.4159 169.3363 C187.1541 168.53 187.9246 167.7607 188.6888 167.0274 187.2431 168.4757 186.4159 169.3363 186.4159 169.3363 " fill="#00ADEF" fillRule="nonzero" id="Path_1"/>
        <path d="M186.4159 169.3363 L186.2562 169.1629 C187.0019 168.348 187.7782 167.575 188.5425 166.8418 L188.8396 167.2144 C188.1168 167.9386 187.55 168.5149 187.1648 168.9077 186.778 169.3054 186.5727 169.5197 186.5727 169.5197 L186.2562 169.1629 186.4159 169.3363 186.2636 169.1543 C186.2636 169.1543 187.0908 168.2937 188.5365 166.8454 L188.6888 167.0274 188.8381 167.2194 C188.0754 167.9477 187.3064 168.7121 186.5742 169.5147 L186.4159 169.3363 186.2636 169.1543 186.4159 169.3363 " fill="#3871C1" fillRule="nonzero" id="Path_1"/>
        <path d="M196.1649 149.0002 C197.5589 147.5438 198.1326 146.2089 196.7527 144.7647 192.7882 140.6202 172.6977 146.8695 172.6977 146.8695 L171.2584 140.9032 C180.8565 136.4735 208.2243 128.7272 225.5591 129.1172 216.0884 132.4719 203.2897 142.8179 196.1649 149.0002 " fill="#3871C1" fillRule="nonzero" id="Path_1"/>
        <path d="M285.2561 178.0225 C284.8432 177.5926 284.1846 177.0231 283.3141 176.3457 283.0895 176.1906 282.8464 176.0244 282.595 175.8501 282.3435 175.6758 282.0931 175.4804 281.7978 175.3251 281.2311 174.9895 280.6155 174.6182 279.9127 174.301 279.2369 173.9487 278.4692 173.6661 277.6694 173.3462 276.8592 173.0781 275.9944 172.7929 275.0739 172.5835 274.8454 172.5304 274.6186 172.4717 274.3801 172.4156 274.1437 172.3705 273.9071 172.3259 273.6657 172.2793 273.1812 172.1917 272.6899 172.091 272.1799 172.0334 271.1707 171.8832 270.1158 171.8118 269.0319 171.7641 266.8561 171.6771 264.5471 171.7774 262.1491 172.1163 261.8641 172.1596 261.569 172.1999 261.2774 172.2468 L260.8333 172.3125 260.3717 172.3998 C259.7711 172.5151 259.1634 172.6178 258.5616 172.7547 257.3476 173.0093 256.1281 173.2996 254.9098 173.6398 252.466 174.2903 250.0226 175.0821 247.5846 175.8921 245.1699 176.7146 242.7554 177.5366 240.3817 178.3496 239.7831 178.5474 239.1926 178.7365 238.6071 178.9272 238.0201 179.123 237.4376 179.3036 236.8615 179.4813 236.2874 179.67 235.6946 179.831 235.1135 180.0071 234.5504 180.1778 233.9701 180.3157 233.4051 180.4747 231.1354 181.0531 228.9287 181.5321 226.8259 181.8302 224.7259 182.1194 222.7328 182.2719 220.895 182.2713 219.0671 182.2737 217.3887 182.1427 215.9259 181.8928 215.1879 181.7982 214.5185 181.6213 213.8832 181.4932 213.5691 181.4355 213.2736 181.3345 212.9869 181.2582 212.7067 181.1784 212.4314 181.1001 212.1761 181.0278 211.6715 180.8632 211.2243 180.6892 210.8258 180.5514 210.7312 180.5226 210.6332 180.4872 210.545 180.4555 210.4535 180.4166 210.367 180.3793 210.2855 180.3435 210.1272 180.2739 209.9741 180.2053 209.8441 180.1499 209.3099 179.9219 209.0254 179.8029 209.0254 179.8029 209.0254 179.8029 209.2864 179.9636 209.7786 180.2759 210.2675 180.5989 211.0175 181.0111 212.0041 181.4856 212.2539 181.594 212.5184 181.7075 212.798 181.825 213.0792 181.9375 213.3626 182.0781 213.6761 182.1736 214.2941 182.3941 214.9717 182.6334 215.7104 182.8149 216.4434 183.0326 217.2405 183.183 218.0808 183.3521 218.9269 183.4845 219.8271 183.6175 220.7699 183.6821 222.648 183.8361 224.7115 183.8456 226.8912 183.6521 229.0679 183.4682 231.3638 183.125 233.7086 182.5854 234.2955 182.444 234.8827 182.3192 235.4806 182.1592 236.0705 182.0077 236.6524 181.8647 237.2532 181.6952 238.457 181.3671 239.6569 181.0159 240.8609 180.6336 243.2707 179.8804 245.6948 179.0448 248.1149 178.2404 250.528 177.4229 252.9354 176.6421 255.3107 175.9487 257.693 175.2684 260.0315 174.678 262.3306 174.2711 264.5936 173.8752 266.8134 173.639 268.9083 173.5988 271.0004 173.568 272.9733 173.6965 274.7692 173.9775 275.6725 174.1004 276.5091 174.3173 277.32 174.4939 278.1158 174.7197 278.8778 174.9138 279.5678 175.1838 280.2701 175.4134 280.8936 175.723 281.4877 175.9686 281.7885 176.0877 282.0511 176.2434 282.3196 176.3795 282.5832 176.5141 282.8319 176.6436 283.0706 176.7707 283.532 177.0412 283.934 177.3103 284.2934 177.5229 284.3855 177.5778 284.4724 177.6318 284.5545 177.6836 284.6348 177.7411 284.7104 177.7965 284.781 177.8504 284.9286 177.9551 285.0577 178.0488 285.172 178.138 285.6452 178.4769 285.8986 178.6628 285.8986 178.6628 285.8986 178.6628 285.6785 178.4388 285.2561 178.0225 L285.2561 178.0225 Z M376.2098 215.2048 C361.5235 173.0139 325.7954 177.2704 325.7954 177.2704 355.9761 179.6431 366.7009 206.7149 370.2118 225.8324 L351.3624 237.0732 C350.7649 218.4958 336.9977 208.1504 336.9977 208.1504 337.1739 208.3396 337.3501 208.5289 337.5213 208.7166 348.2123 220.4858 344.5465 241.1354 330.4467 249.5462 L324.8794 252.8652 C328.067 232.6613 325.1291 219.3241 318.2575 210.5846 324.0903 213.9664 329.5797 219.2088 332.5026 227.3264 332.5026 227.3264 330.9818 208.9773 308.5375 202.3236 276.219 183.8611 209.0761 207.3201 190.0677 186.8269 180.2409 176.2377 182.1111 169.1664 186.2336 163.8774 186.6741 163.3059 187.1447 162.7601 187.6274 162.2284 187.6274 162.2284 188.4549 161.368 189.8967 159.9188 191.5074 158.3792 193.0789 156.986 194.2204 155.6836 202.9986 147.2482 218.7326 133.0944 230.1963 128.2872 230.6108 128.2833 231.0252 128.2793 231.4318 128.2834 236.5175 128.3504 240.7802 129.1381 243.6724 130.9087 258.988 140.2765 238.1781 150.8661 221.3896 152.8908 221.2257 152.9112 221.0517 152.9291 220.8913 152.956 212.0968 154.1043 212.3511 168.4863 221.156 167.9111 232.7908 167.1499 248.3709 160.5031 267.5461 154.2289 268.3017 153.9977 297.9437 145.1369 332.1537 152.6 332.1537 152.6 318.4809 147.1239 301.5946 145.3798 312.9867 143.362 325.2109 142.2543 338.2439 142.8307 401.6562 145.6454 391.7768 205.9219 391.7768 205.9219 L376.2098 215.2048 " fill="#00A6FB" fillRule="nonzero" id="CompoundPath_1_1"/>
        <path d="M297.7508 187.6538 C297.2614 187.1405 296.4806 186.4608 295.4483 185.6527 295.1818 185.4677 294.8936 185.2695 294.5953 185.0616 294.297 184.8537 294.0 184.6206 293.6496 184.4357 292.9773 184.0356 292.2469 183.5931 291.4128 183.2155 290.6109 182.7958 289.6996 182.4598 288.7502 182.0793 287.7884 181.7608 286.7617 181.4219 285.6686 181.174 285.3973 181.1111 285.1279 181.0415 284.8447 180.9751 284.564 180.9218 284.283 180.8692 283.9963 180.8141 283.421 180.7106 282.8375 180.5915 282.2317 180.5241 281.0331 180.3472 279.7798 180.2649 278.4922 180.2108 275.9072 180.113 273.1635 180.2398 270.3134 180.6523 269.9746 180.705 269.6239 180.7541 269.2774 180.811 L268.7494 180.891 268.2007 180.9968 C267.4868 181.1365 266.7644 181.2611 266.0491 181.4267 264.6059 181.735 263.1562 182.086 261.7076 182.4966 258.8021 183.2822 255.8967 184.2369 252.9976 185.2133 250.1262 186.2047 247.2551 187.1954 244.4324 188.1753 243.7207 188.4137 243.0185 188.6418 242.3223 188.8717 241.6242 189.1077 240.9316 189.3256 240.2466 189.5399 239.564 189.7674 238.8592 189.9618 238.1683 190.1743 237.4987 190.3801 236.8088 190.5468 236.137 190.7389 233.4387 191.4376 230.8153 192.0173 228.3161 192.3801 225.8201 192.7323 223.4515 192.9205 221.2679 192.9252 219.0962 192.9334 217.1023 192.7814 215.365 192.4866 214.4885 192.3755 213.6937 192.1658 212.9393 192.0143 212.5662 191.9461 212.2154 191.8261 211.8749 191.7357 211.5422 191.641 211.2154 191.548 210.9122 191.4623 210.3133 191.2668 209.7823 191.0598 209.3092 190.896 209.197 190.8618 209.0806 190.8198 208.9759 190.7821 208.8673 190.7358 208.7646 190.6914 208.6679 190.6488 208.48 190.566 208.2983 190.4843 208.1441 190.4183 207.5101 190.147 207.1723 190.0054 207.1723 190.0054 207.1723 190.0054 207.4819 190.197 208.0658 190.5694 208.6458 190.9545 209.5357 191.4456 210.7066 192.0106 211.003 192.1396 211.317 192.2747 211.6489 192.4145 211.9826 192.5483 212.3189 192.7159 212.6912 192.8292 213.4248 193.0913 214.2292 193.3757 215.1063 193.5908 215.9767 193.8492 216.9233 194.0269 217.9212 194.2269 218.9261 194.3828 219.9953 194.5394 221.1153 194.6141 223.3463 194.7929 225.798 194.7982 228.3883 194.5604 230.9751 194.3339 233.704 193.9166 236.4916 193.264 237.1892 193.0931 237.8873 192.942 238.5982 192.7487 239.2995 192.5657 239.9913 192.393 240.7057 192.1883 242.1368 191.7922 243.5636 191.3684 244.9952 190.9073 247.8606 189.999 250.7432 188.9919 253.6209 188.0222 256.4904 187.0368 259.353 186.0954 262.1773 185.2587 265.0097 184.4376 267.79 183.7243 270.5227 183.2306 273.2127 182.7502 275.8508 182.4611 278.34 182.4069 280.8258 182.364 283.1695 182.5121 285.3025 182.8432 286.3754 182.9877 287.3688 183.2448 288.3317 183.4538 289.2766 183.7217 290.1815 183.9519 291.0005 184.2729 291.8342 184.5457 292.5741 184.9144 293.2793 185.2067 293.6364 185.3483 293.9479 185.5339 294.2666 185.696 294.5793 185.8563 294.8745 186.0106 295.1577 186.1619 295.7051 186.4844 296.182 186.8052 296.6084 187.0587 296.7176 187.1241 296.8207 187.1884 296.9181 187.2503 297.0135 187.3188 297.1031 187.3849 297.1868 187.4491 297.3618 187.5741 297.515 187.6859 297.6505 187.7922 298.2118 188.1965 298.5123 188.4182 298.5123 188.4182 298.5123 188.4182 298.2515 188.1508 297.7508 187.6537 L297.7508 187.6538 Z M405.7094 231.8895 C388.3822 181.4385 345.9197 186.6363 345.9197 186.6363 381.7718 189.3883 394.4361 221.7564 398.5521 244.6257 L376.1237 258.1332 C375.4677 235.9017 359.1401 223.5604 359.1401 223.5604 359.3489 223.7864 359.5577 224.0124 359.7606 224.2366 372.429 238.2908 368.0136 263.0145 351.2366 273.1213 L344.6122 277.1095 C348.4581 252.9206 345.0061 236.9674 336.8669 226.5279 343.7874 230.5583 350.2944 236.8164 353.7437 246.523 353.7437 246.523 351.99 224.5675 325.3421 216.6695 286.9965 194.6675 207.1529 222.9374 184.6275 198.4666 172.9825 185.8222 175.225 177.3539 180.1385 171.0121 180.6634 170.3269 181.2243 169.6724 181.7993 169.0347 181.7993 169.0347 182.785 168.0025 184.5023 166.2639 186.4204 164.4168 188.2917 162.7448 189.6517 161.1828 200.1059 151.062 218.8413 134.0773 232.4758 128.2909 232.9682 128.285 233.4607 128.2791 233.9438 128.2828 239.9861 128.3483 245.0485 129.2787 248.4798 131.3893 266.6498 142.5561 241.8939 155.2898 221.9409 157.7617 221.7461 157.7866 221.5393 157.8085 221.3486 157.8411 210.8961 159.2409 211.1565 176.4523 221.6197 175.7384 235.4458 174.7936 253.9765 166.7938 276.7777 159.2293 277.676 158.9505 312.9208 148.2601 353.5457 157.0927 353.5457 157.0927 337.3163 150.5785 317.2579 148.5402 330.7992 146.0923 345.3267 144.7311 360.81 145.3832 436.1451 148.5681 424.2322 220.7347 424.2322 220.7347 L405.7094 231.8894 " fill="#0582CA" fillRule="nonzero" id="CompoundPath_1"/>
        <path d="M156.0347 118.9243 C157.7278 118.5826 159.3709 119.378 159.706 120.7042 L161.0225 125.9717 C165.0451 125.9639 168.555 128.1066 169.3675 131.3407 L179.1624 170.2322 C180.1231 174.0573 176.9495 177.9453 172.0663 178.9262 167.1801 179.9144 162.4527 177.613 161.4829 173.7858 L151.6971 134.8964 C151.8721 129.1807 153.0274 128.3746 156.6675 126.8466 L156.1959 124.9958 C155.8699 123.6716 154.2268 122.8763 152.5337 123.2179 L140.857 125.5689 C139.7162 125.794 138.7905 126.4974 138.464 127.3977 L126.1967 160.8965 C125.8703 161.7968 124.9536 162.5022 123.8097 162.7346 L113.3855 164.8294 C112.9031 166.2452 111.4657 167.441 109.5462 167.8281 L89.6877 171.8228 C87.0349 172.3581 84.3682 171.176 83.7709 169.1059 83.1558 166.9601 84.9202 164.7446 87.6696 164.1909 L107.6247 160.1777 C109.5351 159.7886 111.4085 160.3161 112.5316 161.4106 L120.306 159.8438 C121.4468 159.6187 122.3756 158.9079 122.699 158.015 L134.9663 124.5162 C135.2928 123.6159 136.2095 122.9105 137.3533 122.6781 L156.0347 118.9243 Z" fill="#4F4C4C" fillRule="nonzero" id="Path_1"/>
        <path d="M161.1212 125.8847 C165.1438 125.8768 168.6538 128.0195 169.4662 131.2537 L179.2611 170.1451 C180.2219 173.9703 177.0482 177.8583 172.165 178.8392 167.2789 179.8274 162.5514 177.526 161.5816 173.6988 L151.7958 134.8093 C151.9708 129.0936 153.1261 128.2876 156.7662 126.7596 L161.1212 125.8847 Z" fill="#446375" fillRule="nonzero" id="Path_1"/>
      </g>
    </g>
  </g>
</svg>
